<mxfile host="app.diagrams.net" modified="2020-11-19T06:59:55.045Z" agent="5.0 (Windows)" etag="aV3V-skUXFOPOKsrgmS5" version="13.10.0" type="github">
  <diagram id="loGzFxo2yQOnFv5d6dIf" name="Page-1">
    <mxGraphModel dx="2249" dy="763" grid="1" gridSize="10" guides="1" tooltips="1" connect="1" arrows="1" fold="1" page="1" pageScale="1" pageWidth="827" pageHeight="1169" math="0" shadow="0">
      <root>
        <mxCell id="0" />
        <mxCell id="1" parent="0" />
        <mxCell id="HxaHVnvR9LQBMIosxy6r-110" value="" style="rounded=1;whiteSpace=wrap;html=1;" vertex="1" parent="1">
          <mxGeometry x="370" y="118.5" width="160" height="95" as="geometry" />
        </mxCell>
        <mxCell id="HxaHVnvR9LQBMIosxy6r-84" value="" style="rounded=1;whiteSpace=wrap;html=1;rotation=90;" vertex="1" parent="1">
          <mxGeometry x="-1000" y="323.65" width="640" height="192.35" as="geometry" />
        </mxCell>
        <mxCell id="HxaHVnvR9LQBMIosxy6r-24" value="" style="rounded=1;whiteSpace=wrap;html=1;rotation=90;" vertex="1" parent="1">
          <mxGeometry x="-80" y="220" width="400" height="220" as="geometry" />
        </mxCell>
        <mxCell id="HxaHVnvR9LQBMIosxy6r-23" value="" style="rounded=1;whiteSpace=wrap;html=1;rotation=90;" vertex="1" parent="1">
          <mxGeometry x="-103.75" y="478.75" width="447.5" height="180" as="geometry" />
        </mxCell>
        <mxCell id="HxaHVnvR9LQBMIosxy6r-1" value="Campaign" style="swimlane;fontStyle=0;childLayout=stackLayout;horizontal=1;startSize=26;fillColor=none;horizontalStack=0;resizeParent=1;resizeParentMax=0;resizeLast=0;collapsible=1;marginBottom=0;" vertex="1" parent="1">
          <mxGeometry x="50" y="360" width="140" height="156" as="geometry" />
        </mxCell>
        <mxCell id="HxaHVnvR9LQBMIosxy6r-2" value="+ field: type" style="text;strokeColor=none;fillColor=none;align=left;verticalAlign=top;spacingLeft=4;spacingRight=4;overflow=hidden;rotatable=0;points=[[0,0.5],[1,0.5]];portConstraint=eastwest;" vertex="1" parent="HxaHVnvR9LQBMIosxy6r-1">
          <mxGeometry y="26" width="140" height="26" as="geometry" />
        </mxCell>
        <mxCell id="HxaHVnvR9LQBMIosxy6r-3" value="+ field: type" style="text;strokeColor=none;fillColor=none;align=left;verticalAlign=top;spacingLeft=4;spacingRight=4;overflow=hidden;rotatable=0;points=[[0,0.5],[1,0.5]];portConstraint=eastwest;" vertex="1" parent="HxaHVnvR9LQBMIosxy6r-1">
          <mxGeometry y="52" width="140" height="26" as="geometry" />
        </mxCell>
        <mxCell id="HxaHVnvR9LQBMIosxy6r-4" value="+ field: type" style="text;strokeColor=none;fillColor=none;align=left;verticalAlign=top;spacingLeft=4;spacingRight=4;overflow=hidden;rotatable=0;points=[[0,0.5],[1,0.5]];portConstraint=eastwest;" vertex="1" parent="HxaHVnvR9LQBMIosxy6r-1">
          <mxGeometry y="78" width="140" height="26" as="geometry" />
        </mxCell>
        <mxCell id="HxaHVnvR9LQBMIosxy6r-5" value="+ field: type" style="text;strokeColor=none;fillColor=none;align=left;verticalAlign=top;spacingLeft=4;spacingRight=4;overflow=hidden;rotatable=0;points=[[0,0.5],[1,0.5]];portConstraint=eastwest;" vertex="1" parent="HxaHVnvR9LQBMIosxy6r-1">
          <mxGeometry y="104" width="140" height="26" as="geometry" />
        </mxCell>
        <mxCell id="HxaHVnvR9LQBMIosxy6r-6" value="+ field: type" style="text;strokeColor=none;fillColor=none;align=left;verticalAlign=top;spacingLeft=4;spacingRight=4;overflow=hidden;rotatable=0;points=[[0,0.5],[1,0.5]];portConstraint=eastwest;" vertex="1" parent="HxaHVnvR9LQBMIosxy6r-1">
          <mxGeometry y="130" width="140" height="26" as="geometry" />
        </mxCell>
        <mxCell id="HxaHVnvR9LQBMIosxy6r-7" value="Social" style="swimlane;fontStyle=0;childLayout=stackLayout;horizontal=1;startSize=26;fillColor=none;horizontalStack=0;resizeParent=1;resizeParentMax=0;resizeLast=0;collapsible=1;marginBottom=0;" vertex="1" parent="1">
          <mxGeometry x="50" y="140" width="140" height="52" as="geometry" />
        </mxCell>
        <mxCell id="HxaHVnvR9LQBMIosxy6r-11" value="in" style="shape=rhombus;perimeter=rhombusPerimeter;whiteSpace=wrap;html=1;align=center;" vertex="1" parent="1">
          <mxGeometry x="60" y="240" width="120" height="60" as="geometry" />
        </mxCell>
        <mxCell id="HxaHVnvR9LQBMIosxy6r-12" value="Personal" style="swimlane;fontStyle=0;childLayout=stackLayout;horizontal=1;startSize=26;fillColor=none;horizontalStack=0;resizeParent=1;resizeParentMax=0;resizeLast=0;collapsible=1;marginBottom=0;" vertex="1" parent="1">
          <mxGeometry x="50" y="733" width="140" height="52" as="geometry" />
        </mxCell>
        <mxCell id="HxaHVnvR9LQBMIosxy6r-13" value="+ field: type" style="text;strokeColor=none;fillColor=none;align=left;verticalAlign=top;spacingLeft=4;spacingRight=4;overflow=hidden;rotatable=0;points=[[0,0.5],[1,0.5]];portConstraint=eastwest;" vertex="1" parent="HxaHVnvR9LQBMIosxy6r-12">
          <mxGeometry y="26" width="140" height="26" as="geometry" />
        </mxCell>
        <mxCell id="HxaHVnvR9LQBMIosxy6r-16" value="in" style="shape=rhombus;perimeter=rhombusPerimeter;whiteSpace=wrap;html=1;align=center;" vertex="1" parent="1">
          <mxGeometry x="60" y="240" width="120" height="60" as="geometry" />
        </mxCell>
        <mxCell id="HxaHVnvR9LQBMIosxy6r-17" value="in" style="shape=rhombus;perimeter=rhombusPerimeter;whiteSpace=wrap;html=1;align=center;" vertex="1" parent="1">
          <mxGeometry x="50" y="660" width="120" height="60" as="geometry" />
        </mxCell>
        <mxCell id="HxaHVnvR9LQBMIosxy6r-18" value="in" style="shape=rhombus;perimeter=rhombusPerimeter;whiteSpace=wrap;html=1;align=center;" vertex="1" parent="1">
          <mxGeometry x="230" y="640" width="120" height="60" as="geometry" />
        </mxCell>
        <mxCell id="HxaHVnvR9LQBMIosxy6r-19" value="KindOfPersonal Media" style="swimlane;fontStyle=0;childLayout=stackLayout;horizontal=1;startSize=26;fillColor=none;horizontalStack=0;resizeParent=1;resizeParentMax=0;resizeLast=0;collapsible=1;marginBottom=0;" vertex="1" parent="1">
          <mxGeometry x="380" y="648" width="140" height="52" as="geometry" />
        </mxCell>
        <mxCell id="HxaHVnvR9LQBMIosxy6r-20" value="+ field: type" style="text;strokeColor=none;fillColor=none;align=left;verticalAlign=top;spacingLeft=4;spacingRight=4;overflow=hidden;rotatable=0;points=[[0,0.5],[1,0.5]];portConstraint=eastwest;" vertex="1" parent="HxaHVnvR9LQBMIosxy6r-19">
          <mxGeometry y="26" width="140" height="26" as="geometry" />
        </mxCell>
        <mxCell id="HxaHVnvR9LQBMIosxy6r-25" value="Is A" style="triangle;whiteSpace=wrap;html=1;" vertex="1" parent="1">
          <mxGeometry x="-170" y="363" width="60" height="80" as="geometry" />
        </mxCell>
        <mxCell id="HxaHVnvR9LQBMIosxy6r-26" value="" style="endArrow=none;html=1;entryX=0;entryY=0.25;entryDx=0;entryDy=0;" edge="1" parent="1" target="HxaHVnvR9LQBMIosxy6r-7">
          <mxGeometry width="50" height="50" relative="1" as="geometry">
            <mxPoint x="-150" y="380" as="sourcePoint" />
            <mxPoint x="-100" y="330" as="targetPoint" />
          </mxGeometry>
        </mxCell>
        <mxCell id="HxaHVnvR9LQBMIosxy6r-27" value="" style="endArrow=none;html=1;exitX=0;exitY=0.25;exitDx=0;exitDy=0;" edge="1" parent="1" source="HxaHVnvR9LQBMIosxy6r-12">
          <mxGeometry width="50" height="50" relative="1" as="geometry">
            <mxPoint x="-190" y="470" as="sourcePoint" />
            <mxPoint x="-140" y="420" as="targetPoint" />
            <Array as="points">
              <mxPoint x="-100" y="480" />
            </Array>
          </mxGeometry>
        </mxCell>
        <mxCell id="HxaHVnvR9LQBMIosxy6r-34" value="Is A" style="triangle;whiteSpace=wrap;html=1;" vertex="1" parent="1">
          <mxGeometry x="280" y="398" width="60" height="80" as="geometry" />
        </mxCell>
        <mxCell id="HxaHVnvR9LQBMIosxy6r-35" value="" style="endArrow=none;html=1;" edge="1" parent="1" target="HxaHVnvR9LQBMIosxy6r-34">
          <mxGeometry width="50" height="50" relative="1" as="geometry">
            <mxPoint x="190" y="436" as="sourcePoint" />
            <mxPoint x="240" y="378" as="targetPoint" />
          </mxGeometry>
        </mxCell>
        <mxCell id="HxaHVnvR9LQBMIosxy6r-36" value="" style="endArrow=none;html=1;entryX=0.033;entryY=0.588;entryDx=0;entryDy=0;entryPerimeter=0;" edge="1" parent="1" target="HxaHVnvR9LQBMIosxy6r-34">
          <mxGeometry width="50" height="50" relative="1" as="geometry">
            <mxPoint x="190" y="445" as="sourcePoint" />
            <mxPoint x="267" y="444" as="targetPoint" />
          </mxGeometry>
        </mxCell>
        <mxCell id="HxaHVnvR9LQBMIosxy6r-41" value="SpecificProduct" style="swimlane;fontStyle=0;childLayout=stackLayout;horizontal=1;startSize=26;fillColor=none;horizontalStack=0;resizeParent=1;resizeParentMax=0;resizeLast=0;collapsible=1;marginBottom=0;" vertex="1" parent="1">
          <mxGeometry x="380" y="340" width="140" height="52" as="geometry" />
        </mxCell>
        <mxCell id="HxaHVnvR9LQBMIosxy6r-42" value="+ field: type" style="text;strokeColor=none;fillColor=none;align=left;verticalAlign=top;spacingLeft=4;spacingRight=4;overflow=hidden;rotatable=0;points=[[0,0.5],[1,0.5]];portConstraint=eastwest;" vertex="1" parent="HxaHVnvR9LQBMIosxy6r-41">
          <mxGeometry y="26" width="140" height="26" as="geometry" />
        </mxCell>
        <mxCell id="HxaHVnvR9LQBMIosxy6r-45" value="General" style="swimlane;fontStyle=0;childLayout=stackLayout;horizontal=1;startSize=26;fillColor=none;horizontalStack=0;resizeParent=1;resizeParentMax=0;resizeLast=0;collapsible=1;marginBottom=0;" vertex="1" parent="1">
          <mxGeometry x="380" y="410" width="140" height="52" as="geometry" />
        </mxCell>
        <mxCell id="HxaHVnvR9LQBMIosxy6r-46" value="+ field: type" style="text;strokeColor=none;fillColor=none;align=left;verticalAlign=top;spacingLeft=4;spacingRight=4;overflow=hidden;rotatable=0;points=[[0,0.5],[1,0.5]];portConstraint=eastwest;" vertex="1" parent="HxaHVnvR9LQBMIosxy6r-45">
          <mxGeometry y="26" width="140" height="26" as="geometry" />
        </mxCell>
        <mxCell id="HxaHVnvR9LQBMIosxy6r-47" value="SpecificBrand" style="swimlane;fontStyle=0;childLayout=stackLayout;horizontal=1;startSize=26;fillColor=none;horizontalStack=0;resizeParent=1;resizeParentMax=0;resizeLast=0;collapsible=1;marginBottom=0;" vertex="1" parent="1">
          <mxGeometry x="380" y="490" width="140" height="52" as="geometry" />
        </mxCell>
        <mxCell id="HxaHVnvR9LQBMIosxy6r-48" value="+ field: type" style="text;strokeColor=none;fillColor=none;align=left;verticalAlign=top;spacingLeft=4;spacingRight=4;overflow=hidden;rotatable=0;points=[[0,0.5],[1,0.5]];portConstraint=eastwest;" vertex="1" parent="HxaHVnvR9LQBMIosxy6r-47">
          <mxGeometry y="26" width="140" height="26" as="geometry" />
        </mxCell>
        <mxCell id="HxaHVnvR9LQBMIosxy6r-50" value="disjoint" style="text;html=1;strokeColor=none;fillColor=none;align=center;verticalAlign=middle;whiteSpace=wrap;rounded=0;" vertex="1" parent="1">
          <mxGeometry x="240" y="410" width="40" height="20" as="geometry" />
        </mxCell>
        <mxCell id="HxaHVnvR9LQBMIosxy6r-51" value="" style="endArrow=none;html=1;entryX=0;entryY=0.25;entryDx=0;entryDy=0;" edge="1" parent="1" target="HxaHVnvR9LQBMIosxy6r-41">
          <mxGeometry width="50" height="50" relative="1" as="geometry">
            <mxPoint x="310" y="420" as="sourcePoint" />
            <mxPoint x="360" y="370" as="targetPoint" />
          </mxGeometry>
        </mxCell>
        <mxCell id="HxaHVnvR9LQBMIosxy6r-52" value="" style="endArrow=none;html=1;entryX=0;entryY=0.25;entryDx=0;entryDy=0;exitX=0.5;exitY=1;exitDx=0;exitDy=0;" edge="1" parent="1" source="HxaHVnvR9LQBMIosxy6r-34" target="HxaHVnvR9LQBMIosxy6r-47">
          <mxGeometry width="50" height="50" relative="1" as="geometry">
            <mxPoint x="260" y="557" as="sourcePoint" />
            <mxPoint x="330" y="490" as="targetPoint" />
          </mxGeometry>
        </mxCell>
        <mxCell id="HxaHVnvR9LQBMIosxy6r-55" value="" style="endArrow=none;html=1;exitX=1;exitY=0.5;exitDx=0;exitDy=0;" edge="1" parent="1" source="HxaHVnvR9LQBMIosxy6r-34">
          <mxGeometry width="50" height="50" relative="1" as="geometry">
            <mxPoint x="350" y="453.75" as="sourcePoint" />
            <mxPoint x="380" y="422.25" as="targetPoint" />
            <Array as="points" />
          </mxGeometry>
        </mxCell>
        <mxCell id="HxaHVnvR9LQBMIosxy6r-111" style="edgeStyle=orthogonalEdgeStyle;rounded=0;orthogonalLoop=1;jettySize=auto;html=1;exitX=0.5;exitY=0;exitDx=0;exitDy=0;endArrow=ERoneToMany;endFill=0;entryX=0.5;entryY=1;entryDx=0;entryDy=0;" edge="1" parent="1" source="HxaHVnvR9LQBMIosxy6r-56" target="HxaHVnvR9LQBMIosxy6r-110">
          <mxGeometry relative="1" as="geometry">
            <mxPoint x="450" y="220" as="targetPoint" />
          </mxGeometry>
        </mxCell>
        <mxCell id="HxaHVnvR9LQBMIosxy6r-112" style="edgeStyle=orthogonalEdgeStyle;rounded=0;orthogonalLoop=1;jettySize=auto;html=1;entryX=0.5;entryY=0;entryDx=0;entryDy=0;endArrow=ERzeroToMany;endFill=1;" edge="1" parent="1" source="HxaHVnvR9LQBMIosxy6r-56" target="HxaHVnvR9LQBMIosxy6r-41">
          <mxGeometry relative="1" as="geometry" />
        </mxCell>
        <mxCell id="HxaHVnvR9LQBMIosxy6r-118" style="edgeStyle=orthogonalEdgeStyle;rounded=0;orthogonalLoop=1;jettySize=auto;html=1;entryX=1;entryY=0.5;entryDx=0;entryDy=0;endArrow=ERmandOne;endFill=0;" edge="1" parent="1" source="HxaHVnvR9LQBMIosxy6r-56" target="HxaHVnvR9LQBMIosxy6r-79">
          <mxGeometry relative="1" as="geometry">
            <Array as="points">
              <mxPoint x="300" y="270" />
              <mxPoint x="300" y="120" />
              <mxPoint x="-540" y="120" />
              <mxPoint x="-540" y="166" />
            </Array>
          </mxGeometry>
        </mxCell>
        <mxCell id="HxaHVnvR9LQBMIosxy6r-56" value="for" style="shape=rhombus;perimeter=rhombusPerimeter;whiteSpace=wrap;html=1;align=center;" vertex="1" parent="1">
          <mxGeometry x="390" y="240" width="120" height="60" as="geometry" />
        </mxCell>
        <mxCell id="HxaHVnvR9LQBMIosxy6r-57" value="Product" style="swimlane;fontStyle=0;childLayout=stackLayout;horizontal=1;startSize=26;fillColor=none;horizontalStack=0;resizeParent=1;resizeParentMax=0;resizeLast=0;collapsible=1;marginBottom=0;" vertex="1" parent="1">
          <mxGeometry x="380" y="127" width="140" height="78" as="geometry" />
        </mxCell>
        <mxCell id="HxaHVnvR9LQBMIosxy6r-58" value="+ field: type" style="text;strokeColor=none;fillColor=none;align=left;verticalAlign=top;spacingLeft=4;spacingRight=4;overflow=hidden;rotatable=0;points=[[0,0.5],[1,0.5]];portConstraint=eastwest;" vertex="1" parent="HxaHVnvR9LQBMIosxy6r-57">
          <mxGeometry y="26" width="140" height="26" as="geometry" />
        </mxCell>
        <mxCell id="HxaHVnvR9LQBMIosxy6r-59" value="+ field: type" style="text;strokeColor=none;fillColor=none;align=left;verticalAlign=top;spacingLeft=4;spacingRight=4;overflow=hidden;rotatable=0;points=[[0,0.5],[1,0.5]];portConstraint=eastwest;" vertex="1" parent="HxaHVnvR9LQBMIosxy6r-57">
          <mxGeometry y="52" width="140" height="26" as="geometry" />
        </mxCell>
        <mxCell id="HxaHVnvR9LQBMIosxy6r-61" value="ClunMember" style="swimlane;fontStyle=0;childLayout=stackLayout;horizontal=1;startSize=26;fillColor=none;horizontalStack=0;resizeParent=1;resizeParentMax=0;resizeLast=0;collapsible=1;marginBottom=0;" vertex="1" parent="1">
          <mxGeometry x="-750" y="430" width="140" height="260" as="geometry" />
        </mxCell>
        <mxCell id="HxaHVnvR9LQBMIosxy6r-62" value="+ field: type" style="text;strokeColor=none;fillColor=none;align=left;verticalAlign=top;spacingLeft=4;spacingRight=4;overflow=hidden;rotatable=0;points=[[0,0.5],[1,0.5]];portConstraint=eastwest;" vertex="1" parent="HxaHVnvR9LQBMIosxy6r-61">
          <mxGeometry y="26" width="140" height="26" as="geometry" />
        </mxCell>
        <mxCell id="HxaHVnvR9LQBMIosxy6r-63" value="+ field: type" style="text;strokeColor=none;fillColor=none;align=left;verticalAlign=top;spacingLeft=4;spacingRight=4;overflow=hidden;rotatable=0;points=[[0,0.5],[1,0.5]];portConstraint=eastwest;" vertex="1" parent="HxaHVnvR9LQBMIosxy6r-61">
          <mxGeometry y="52" width="140" height="26" as="geometry" />
        </mxCell>
        <mxCell id="HxaHVnvR9LQBMIosxy6r-64" value="+ field: type" style="text;strokeColor=none;fillColor=none;align=left;verticalAlign=top;spacingLeft=4;spacingRight=4;overflow=hidden;rotatable=0;points=[[0,0.5],[1,0.5]];portConstraint=eastwest;" vertex="1" parent="HxaHVnvR9LQBMIosxy6r-61">
          <mxGeometry y="78" width="140" height="26" as="geometry" />
        </mxCell>
        <mxCell id="HxaHVnvR9LQBMIosxy6r-66" value="+ field: type" style="text;strokeColor=none;fillColor=none;align=left;verticalAlign=top;spacingLeft=4;spacingRight=4;overflow=hidden;rotatable=0;points=[[0,0.5],[1,0.5]];portConstraint=eastwest;" vertex="1" parent="HxaHVnvR9LQBMIosxy6r-61">
          <mxGeometry y="104" width="140" height="26" as="geometry" />
        </mxCell>
        <mxCell id="HxaHVnvR9LQBMIosxy6r-67" value="+ field: type" style="text;strokeColor=none;fillColor=none;align=left;verticalAlign=top;spacingLeft=4;spacingRight=4;overflow=hidden;rotatable=0;points=[[0,0.5],[1,0.5]];portConstraint=eastwest;" vertex="1" parent="HxaHVnvR9LQBMIosxy6r-61">
          <mxGeometry y="130" width="140" height="26" as="geometry" />
        </mxCell>
        <mxCell id="HxaHVnvR9LQBMIosxy6r-68" value="+ field: type" style="text;strokeColor=none;fillColor=none;align=left;verticalAlign=top;spacingLeft=4;spacingRight=4;overflow=hidden;rotatable=0;points=[[0,0.5],[1,0.5]];portConstraint=eastwest;" vertex="1" parent="HxaHVnvR9LQBMIosxy6r-61">
          <mxGeometry y="156" width="140" height="26" as="geometry" />
        </mxCell>
        <mxCell id="HxaHVnvR9LQBMIosxy6r-69" value="+ field: type" style="text;strokeColor=none;fillColor=none;align=left;verticalAlign=top;spacingLeft=4;spacingRight=4;overflow=hidden;rotatable=0;points=[[0,0.5],[1,0.5]];portConstraint=eastwest;" vertex="1" parent="HxaHVnvR9LQBMIosxy6r-61">
          <mxGeometry y="182" width="140" height="26" as="geometry" />
        </mxCell>
        <mxCell id="HxaHVnvR9LQBMIosxy6r-70" value="+ field: type" style="text;strokeColor=none;fillColor=none;align=left;verticalAlign=top;spacingLeft=4;spacingRight=4;overflow=hidden;rotatable=0;points=[[0,0.5],[1,0.5]];portConstraint=eastwest;" vertex="1" parent="HxaHVnvR9LQBMIosxy6r-61">
          <mxGeometry y="208" width="140" height="26" as="geometry" />
        </mxCell>
        <mxCell id="HxaHVnvR9LQBMIosxy6r-71" value="+ field: type" style="text;strokeColor=none;fillColor=none;align=left;verticalAlign=top;spacingLeft=4;spacingRight=4;overflow=hidden;rotatable=0;points=[[0,0.5],[1,0.5]];portConstraint=eastwest;" vertex="1" parent="HxaHVnvR9LQBMIosxy6r-61">
          <mxGeometry y="234" width="140" height="26" as="geometry" />
        </mxCell>
        <mxCell id="HxaHVnvR9LQBMIosxy6r-72" value="Media" style="swimlane;fontStyle=0;childLayout=stackLayout;horizontal=1;startSize=26;fillColor=none;horizontalStack=0;resizeParent=1;resizeParentMax=0;resizeLast=0;collapsible=1;marginBottom=0;" vertex="1" parent="1">
          <mxGeometry x="-340" y="365" width="140" height="78" as="geometry" />
        </mxCell>
        <mxCell id="HxaHVnvR9LQBMIosxy6r-73" value="+ field: type" style="text;strokeColor=none;fillColor=none;align=left;verticalAlign=top;spacingLeft=4;spacingRight=4;overflow=hidden;rotatable=0;points=[[0,0.5],[1,0.5]];portConstraint=eastwest;" vertex="1" parent="HxaHVnvR9LQBMIosxy6r-72">
          <mxGeometry y="26" width="140" height="26" as="geometry" />
        </mxCell>
        <mxCell id="HxaHVnvR9LQBMIosxy6r-74" value="+ field: type" style="text;strokeColor=none;fillColor=none;align=left;verticalAlign=top;spacingLeft=4;spacingRight=4;overflow=hidden;rotatable=0;points=[[0,0.5],[1,0.5]];portConstraint=eastwest;" vertex="1" parent="HxaHVnvR9LQBMIosxy6r-72">
          <mxGeometry y="52" width="140" height="26" as="geometry" />
        </mxCell>
        <mxCell id="HxaHVnvR9LQBMIosxy6r-76" value="" style="endArrow=none;html=1;entryX=0.017;entryY=0.6;entryDx=0;entryDy=0;entryPerimeter=0;" edge="1" parent="1" target="HxaHVnvR9LQBMIosxy6r-25">
          <mxGeometry width="50" height="50" relative="1" as="geometry">
            <mxPoint x="-200" y="410" as="sourcePoint" />
            <mxPoint x="-170" y="419.5" as="targetPoint" />
          </mxGeometry>
        </mxCell>
        <mxCell id="HxaHVnvR9LQBMIosxy6r-77" value="" style="endArrow=none;html=1;exitX=1.021;exitY=0.154;exitDx=0;exitDy=0;exitPerimeter=0;" edge="1" parent="1" source="HxaHVnvR9LQBMIosxy6r-74">
          <mxGeometry width="50" height="50" relative="1" as="geometry">
            <mxPoint x="-190" y="420" as="sourcePoint" />
            <mxPoint x="-170" y="421" as="targetPoint" />
          </mxGeometry>
        </mxCell>
        <mxCell id="HxaHVnvR9LQBMIosxy6r-78" value="BrandStore" style="swimlane;fontStyle=0;childLayout=stackLayout;horizontal=1;startSize=26;fillColor=none;horizontalStack=0;resizeParent=1;resizeParentMax=0;resizeLast=0;collapsible=1;marginBottom=0;" vertex="1" parent="1">
          <mxGeometry x="-750" y="127" width="140" height="78" as="geometry" />
        </mxCell>
        <mxCell id="HxaHVnvR9LQBMIosxy6r-79" value="+ field: type" style="text;strokeColor=none;fillColor=none;align=left;verticalAlign=top;spacingLeft=4;spacingRight=4;overflow=hidden;rotatable=0;points=[[0,0.5],[1,0.5]];portConstraint=eastwest;" vertex="1" parent="HxaHVnvR9LQBMIosxy6r-78">
          <mxGeometry y="26" width="140" height="26" as="geometry" />
        </mxCell>
        <mxCell id="HxaHVnvR9LQBMIosxy6r-80" value="+ field: type" style="text;strokeColor=none;fillColor=none;align=left;verticalAlign=top;spacingLeft=4;spacingRight=4;overflow=hidden;rotatable=0;points=[[0,0.5],[1,0.5]];portConstraint=eastwest;" vertex="1" parent="HxaHVnvR9LQBMIosxy6r-78">
          <mxGeometry y="52" width="140" height="26" as="geometry" />
        </mxCell>
        <mxCell id="HxaHVnvR9LQBMIosxy6r-82" value="interested in" style="shape=rhombus;perimeter=rhombusPerimeter;whiteSpace=wrap;html=1;align=center;" vertex="1" parent="1">
          <mxGeometry x="-750" y="278" width="120" height="60" as="geometry" />
        </mxCell>
        <mxCell id="HxaHVnvR9LQBMIosxy6r-85" value="Sigment" style="swimlane;fontStyle=0;childLayout=stackLayout;horizontal=1;startSize=26;fillColor=none;horizontalStack=0;resizeParent=1;resizeParentMax=0;resizeLast=0;collapsible=1;marginBottom=0;" vertex="1" parent="1">
          <mxGeometry x="-340" y="478" width="140" height="182" as="geometry" />
        </mxCell>
        <mxCell id="HxaHVnvR9LQBMIosxy6r-86" value="+ field: type" style="text;strokeColor=none;fillColor=none;align=left;verticalAlign=top;spacingLeft=4;spacingRight=4;overflow=hidden;rotatable=0;points=[[0,0.5],[1,0.5]];portConstraint=eastwest;" vertex="1" parent="HxaHVnvR9LQBMIosxy6r-85">
          <mxGeometry y="26" width="140" height="26" as="geometry" />
        </mxCell>
        <mxCell id="HxaHVnvR9LQBMIosxy6r-87" value="+ field: type" style="text;strokeColor=none;fillColor=none;align=left;verticalAlign=top;spacingLeft=4;spacingRight=4;overflow=hidden;rotatable=0;points=[[0,0.5],[1,0.5]];portConstraint=eastwest;" vertex="1" parent="HxaHVnvR9LQBMIosxy6r-85">
          <mxGeometry y="52" width="140" height="26" as="geometry" />
        </mxCell>
        <mxCell id="HxaHVnvR9LQBMIosxy6r-88" value="+ field: type" style="text;strokeColor=none;fillColor=none;align=left;verticalAlign=top;spacingLeft=4;spacingRight=4;overflow=hidden;rotatable=0;points=[[0,0.5],[1,0.5]];portConstraint=eastwest;" vertex="1" parent="HxaHVnvR9LQBMIosxy6r-85">
          <mxGeometry y="78" width="140" height="26" as="geometry" />
        </mxCell>
        <mxCell id="HxaHVnvR9LQBMIosxy6r-89" value="+ field: type" style="text;strokeColor=none;fillColor=none;align=left;verticalAlign=top;spacingLeft=4;spacingRight=4;overflow=hidden;rotatable=0;points=[[0,0.5],[1,0.5]];portConstraint=eastwest;" vertex="1" parent="HxaHVnvR9LQBMIosxy6r-85">
          <mxGeometry y="104" width="140" height="26" as="geometry" />
        </mxCell>
        <mxCell id="HxaHVnvR9LQBMIosxy6r-90" value="+ field: type" style="text;strokeColor=none;fillColor=none;align=left;verticalAlign=top;spacingLeft=4;spacingRight=4;overflow=hidden;rotatable=0;points=[[0,0.5],[1,0.5]];portConstraint=eastwest;" vertex="1" parent="HxaHVnvR9LQBMIosxy6r-85">
          <mxGeometry y="130" width="140" height="26" as="geometry" />
        </mxCell>
        <mxCell id="HxaHVnvR9LQBMIosxy6r-91" value="+ field: type" style="text;strokeColor=none;fillColor=none;align=left;verticalAlign=top;spacingLeft=4;spacingRight=4;overflow=hidden;rotatable=0;points=[[0,0.5],[1,0.5]];portConstraint=eastwest;" vertex="1" parent="HxaHVnvR9LQBMIosxy6r-85">
          <mxGeometry y="156" width="140" height="26" as="geometry" />
        </mxCell>
        <mxCell id="HxaHVnvR9LQBMIosxy6r-92" value="divided" style="shape=rhombus;perimeter=rhombusPerimeter;whiteSpace=wrap;html=1;align=center;" vertex="1" parent="1">
          <mxGeometry x="-520" y="555" width="120" height="60" as="geometry" />
        </mxCell>
        <mxCell id="HxaHVnvR9LQBMIosxy6r-93" value="Month" style="swimlane;fontStyle=0;childLayout=stackLayout;horizontal=1;startSize=26;fillColor=none;horizontalStack=0;resizeParent=1;resizeParentMax=0;resizeLast=0;collapsible=1;marginBottom=0;" vertex="1" parent="1">
          <mxGeometry x="-340" y="260" width="140" height="52" as="geometry" />
        </mxCell>
        <mxCell id="HxaHVnvR9LQBMIosxy6r-94" value="+ field: type" style="text;strokeColor=none;fillColor=none;align=left;verticalAlign=top;spacingLeft=4;spacingRight=4;overflow=hidden;rotatable=0;points=[[0,0.5],[1,0.5]];portConstraint=eastwest;" vertex="1" parent="HxaHVnvR9LQBMIosxy6r-93">
          <mxGeometry y="26" width="140" height="26" as="geometry" />
        </mxCell>
        <mxCell id="HxaHVnvR9LQBMIosxy6r-97" value="divided" style="shape=rhombus;perimeter=rhombusPerimeter;whiteSpace=wrap;html=1;align=center;" vertex="1" parent="1">
          <mxGeometry x="-520" y="256" width="120" height="60" as="geometry" />
        </mxCell>
        <mxCell id="HxaHVnvR9LQBMIosxy6r-102" value="Active" style="shape=rhombus;perimeter=rhombusPerimeter;whiteSpace=wrap;html=1;align=center;" vertex="1" parent="1">
          <mxGeometry x="-330" y="170" width="120" height="60" as="geometry" />
        </mxCell>
        <mxCell id="HxaHVnvR9LQBMIosxy6r-103" value="Advertiserd" style="shape=rhombus;perimeter=rhombusPerimeter;whiteSpace=wrap;html=1;align=center;" vertex="1" parent="1">
          <mxGeometry x="-520" y="383" width="120" height="60" as="geometry" />
        </mxCell>
        <mxCell id="HxaHVnvR9LQBMIosxy6r-104" value="Too" style="shape=rhombus;perimeter=rhombusPerimeter;whiteSpace=wrap;html=1;align=center;" vertex="1" parent="1">
          <mxGeometry x="-330" y="680" width="120" height="60" as="geometry" />
        </mxCell>
        <mxCell id="HxaHVnvR9LQBMIosxy6r-115" style="edgeStyle=orthogonalEdgeStyle;rounded=0;orthogonalLoop=1;jettySize=auto;html=1;endArrow=ERzeroToMany;endFill=1;entryX=1;entryY=0.25;entryDx=0;entryDy=0;" edge="1" parent="1" source="HxaHVnvR9LQBMIosxy6r-105" target="HxaHVnvR9LQBMIosxy6r-47">
          <mxGeometry relative="1" as="geometry">
            <mxPoint x="570" y="520" as="targetPoint" />
            <Array as="points">
              <mxPoint x="570" y="80" />
              <mxPoint x="570" y="503" />
            </Array>
          </mxGeometry>
        </mxCell>
        <mxCell id="HxaHVnvR9LQBMIosxy6r-117" style="edgeStyle=orthogonalEdgeStyle;rounded=0;orthogonalLoop=1;jettySize=auto;html=1;entryX=1;entryY=0.154;entryDx=0;entryDy=0;entryPerimeter=0;endArrow=ERmandOne;endFill=0;" edge="1" parent="1" source="HxaHVnvR9LQBMIosxy6r-105" target="HxaHVnvR9LQBMIosxy6r-78">
          <mxGeometry relative="1" as="geometry">
            <Array as="points">
              <mxPoint x="-560" y="80" />
              <mxPoint x="-560" y="139" />
            </Array>
          </mxGeometry>
        </mxCell>
        <mxCell id="HxaHVnvR9LQBMIosxy6r-105" value="for" style="shape=rhombus;perimeter=rhombusPerimeter;whiteSpace=wrap;html=1;align=center;" vertex="1" parent="1">
          <mxGeometry x="-320" y="50" width="120" height="60" as="geometry" />
        </mxCell>
        <mxCell id="HxaHVnvR9LQBMIosxy6r-120" value="" style="ellipse;whiteSpace=wrap;html=1;" vertex="1" parent="1">
          <mxGeometry x="-370" y="740" width="50" height="38" as="geometry" />
        </mxCell>
        <mxCell id="HxaHVnvR9LQBMIosxy6r-122" value="" style="ellipse;whiteSpace=wrap;html=1;" vertex="1" parent="1">
          <mxGeometry x="-220" y="740" width="50" height="38" as="geometry" />
        </mxCell>
        <mxCell id="HxaHVnvR9LQBMIosxy6r-123" value="" style="ellipse;whiteSpace=wrap;html=1;" vertex="1" parent="1">
          <mxGeometry x="-360" y="132" width="50" height="38" as="geometry" />
        </mxCell>
        <mxCell id="HxaHVnvR9LQBMIosxy6r-124" value="" style="ellipse;whiteSpace=wrap;html=1;" vertex="1" parent="1">
          <mxGeometry x="-295" y="127" width="50" height="38" as="geometry" />
        </mxCell>
        <mxCell id="HxaHVnvR9LQBMIosxy6r-125" value="" style="ellipse;whiteSpace=wrap;html=1;" vertex="1" parent="1">
          <mxGeometry x="-220" y="137" width="50" height="33" as="geometry" />
        </mxCell>
        <mxCell id="HxaHVnvR9LQBMIosxy6r-126" value="" style="ellipse;whiteSpace=wrap;html=1;" vertex="1" parent="1">
          <mxGeometry x="-530" y="345" width="50" height="38" as="geometry" />
        </mxCell>
        <mxCell id="HxaHVnvR9LQBMIosxy6r-127" value="" style="ellipse;whiteSpace=wrap;html=1;" vertex="1" parent="1">
          <mxGeometry x="-450" y="345" width="50" height="38" as="geometry" />
        </mxCell>
        <mxCell id="HxaHVnvR9LQBMIosxy6r-128" value="" style="ellipse;whiteSpace=wrap;html=1;" vertex="1" parent="1">
          <mxGeometry x="-530" y="218" width="50" height="38" as="geometry" />
        </mxCell>
        <mxCell id="HxaHVnvR9LQBMIosxy6r-129" value="" style="ellipse;whiteSpace=wrap;html=1;" vertex="1" parent="1">
          <mxGeometry x="-480" y="202" width="50" height="38" as="geometry" />
        </mxCell>
        <mxCell id="HxaHVnvR9LQBMIosxy6r-130" value="" style="ellipse;whiteSpace=wrap;html=1;" vertex="1" parent="1">
          <mxGeometry x="-430" y="220" width="50" height="38" as="geometry" />
        </mxCell>
        <mxCell id="HxaHVnvR9LQBMIosxy6r-131" value="" style="ellipse;whiteSpace=wrap;html=1;" vertex="1" parent="1">
          <mxGeometry x="-538" y="610" width="50" height="38" as="geometry" />
        </mxCell>
        <mxCell id="HxaHVnvR9LQBMIosxy6r-132" value="" style="ellipse;whiteSpace=wrap;html=1;" vertex="1" parent="1">
          <mxGeometry x="-488" y="640" width="50" height="38" as="geometry" />
        </mxCell>
        <mxCell id="HxaHVnvR9LQBMIosxy6r-133" value="" style="ellipse;whiteSpace=wrap;html=1;" vertex="1" parent="1">
          <mxGeometry x="-438" y="615" width="50" height="38" as="geometry" />
        </mxCell>
        <mxCell id="HxaHVnvR9LQBMIosxy6r-135" value="" style="ellipse;whiteSpace=wrap;html=1;" vertex="1" parent="1">
          <mxGeometry x="30" y="197" width="50" height="33" as="geometry" />
        </mxCell>
        <mxCell id="HxaHVnvR9LQBMIosxy6r-136" value="" style="ellipse;whiteSpace=wrap;html=1;" vertex="1" parent="1">
          <mxGeometry x="20" y="235" width="50" height="33" as="geometry" />
        </mxCell>
        <mxCell id="HxaHVnvR9LQBMIosxy6r-137" value="" style="ellipse;whiteSpace=wrap;html=1;" vertex="1" parent="1">
          <mxGeometry x="140" y="202" width="50" height="33" as="geometry" />
        </mxCell>
        <mxCell id="HxaHVnvR9LQBMIosxy6r-139" value="" style="ellipse;whiteSpace=wrap;html=1;" vertex="1" parent="1">
          <mxGeometry x="170" y="235" width="50" height="33" as="geometry" />
        </mxCell>
        <mxCell id="HxaHVnvR9LQBMIosxy6r-141" value="" style="ellipse;whiteSpace=wrap;html=1;" vertex="1" parent="1">
          <mxGeometry x="170" y="278" width="50" height="33" as="geometry" />
        </mxCell>
        <mxCell id="HxaHVnvR9LQBMIosxy6r-145" style="edgeStyle=orthogonalEdgeStyle;rounded=0;orthogonalLoop=1;jettySize=auto;html=1;exitX=0;exitY=1;exitDx=0;exitDy=0;endArrow=ERzeroToMany;endFill=1;" edge="1" parent="1" source="HxaHVnvR9LQBMIosxy6r-143" target="HxaHVnvR9LQBMIosxy6r-6">
          <mxGeometry relative="1" as="geometry">
            <Array as="points">
              <mxPoint x="68" y="520" />
              <mxPoint x="68" y="520" />
            </Array>
          </mxGeometry>
        </mxCell>
        <mxCell id="HxaHVnvR9LQBMIosxy6r-146" style="edgeStyle=orthogonalEdgeStyle;rounded=0;orthogonalLoop=1;jettySize=auto;html=1;exitX=0;exitY=0;exitDx=0;exitDy=0;entryX=0.3;entryY=1;entryDx=0;entryDy=0;entryPerimeter=0;endArrow=ERmandOne;endFill=0;" edge="1" parent="1" source="HxaHVnvR9LQBMIosxy6r-143" target="HxaHVnvR9LQBMIosxy6r-6">
          <mxGeometry relative="1" as="geometry" />
        </mxCell>
        <mxCell id="HxaHVnvR9LQBMIosxy6r-143" value="Continued of" style="shape=rhombus;perimeter=rhombusPerimeter;whiteSpace=wrap;html=1;align=center;rotation=90;" vertex="1" parent="1">
          <mxGeometry x="40" y="555" width="80" height="50" as="geometry" />
        </mxCell>
        <mxCell id="HxaHVnvR9LQBMIosxy6r-144" value="previousCode" style="ellipse;whiteSpace=wrap;html=1;" vertex="1" parent="1">
          <mxGeometry x="25" y="628.75" width="60" height="49.25" as="geometry" />
        </mxCell>
        <mxCell id="HxaHVnvR9LQBMIosxy6r-147" value="" style="endArrow=none;html=1;exitX=0.5;exitY=0;exitDx=0;exitDy=0;" edge="1" parent="1" source="HxaHVnvR9LQBMIosxy6r-144">
          <mxGeometry width="50" height="50" relative="1" as="geometry">
            <mxPoint x="10" y="640" as="sourcePoint" />
            <mxPoint x="60" y="590" as="targetPoint" />
          </mxGeometry>
        </mxCell>
      </root>
    </mxGraphModel>
  </diagram>
</mxfile>
